<?xml version="1.0" encoding="UTF-8" standalone="no"?><!-- Generator: Gravit.io -->
<svg xmlns="http://www.w3.org/2000/svg" xmlns:xlink="http://www.w3.org/1999/xlink" style="isolation:isolate"
     viewBox="0 0 1200 800" width="1200pt" height="800pt">
    <defs>
        <clipPath id="_clipPath_ZRcv29PEgaxWEz5eiVFpSckWMeQb77Tc">
            <rect width="1200" height="800"/>
        </clipPath>
    </defs>
    <g clip-path="url(#_clipPath_ZRcv29PEgaxWEz5eiVFpSckWMeQb77Tc)">
        <path d=" M 595.075 218.757 C 595.075 144.249 655.567 83.757 730.075 83.757 C 804.584 83.757 865.075 144.249 865.075 218.757 C 865.075 293.266 804.584 353.757 730.075 353.757 C 655.567 353.757 595.075 293.266 595.075 218.757 Z  M 730.03 331.087 C 727.044 331.087 724.012 330.284 721.382 328.769 L 693.876 312.497 C 689.775 310.179 691.781 309.376 693.119 308.931 C 698.602 307.014 699.716 306.612 705.556 303.269 C 706.18 302.912 706.983 303.046 707.607 303.447 L 728.738 315.974 C 729.496 316.42 730.565 316.42 731.279 315.974 L 813.617 268.452 C 814.375 268.007 814.865 267.115 814.865 266.223 L 814.865 171.18 C 814.865 170.244 814.375 169.397 813.572 168.906 L 731.279 121.429 C 730.521 120.983 729.496 120.983 728.738 121.429 L 646.488 168.951 C 645.686 169.397 645.196 170.288 645.196 171.225 L 645.196 266.223 C 645.196 267.115 645.686 268.007 646.488 268.408 L 669.046 281.425 C 681.305 287.532 688.794 280.355 688.794 273.089 L 688.794 179.293 C 688.794 177.956 689.864 176.931 691.202 176.931 L 701.633 176.931 C 702.926 176.931 704.041 177.956 704.041 179.293 L 704.041 273.133 C 704.041 289.449 695.125 298.811 679.656 298.811 C 674.886 298.811 671.141 298.811 660.709 293.64 L 639.133 281.202 C 633.783 278.126 630.484 272.375 630.484 266.179 L 630.484 171.18 C 630.484 165.028 633.783 159.233 639.133 156.157 L 721.382 108.635 C 726.598 105.693 733.508 105.693 738.679 108.635 L 821.017 156.201 C 826.367 159.277 829.666 165.028 829.666 171.225 L 829.666 266.223 C 829.666 272.375 826.367 278.126 821.017 281.247 L 738.679 328.769 C 736.049 330.284 733.062 331.087 730.03 331.087 L 730.03 331.087 Z  M 796.498 237.425 C 796.498 219.638 784.462 214.912 759.185 211.569 C 733.597 208.181 731.011 206.442 731.011 200.469 C 731.011 195.52 733.196 188.923 752.142 188.923 C 769.038 188.923 775.279 192.578 777.864 203.99 C 778.087 205.06 779.068 205.863 780.182 205.863 L 790.881 205.863 C 791.55 205.863 792.174 205.595 792.62 205.105 C 793.066 204.615 793.289 203.946 793.244 203.277 C 791.595 183.618 778.533 174.479 752.142 174.479 C 728.648 174.479 714.651 184.376 714.651 201.004 C 714.651 219.014 728.604 224.007 751.117 226.236 C 778.087 228.866 780.182 232.833 780.182 238.138 C 780.182 247.322 772.782 251.245 755.441 251.245 C 733.641 251.245 728.871 245.761 727.267 234.929 C 727.088 233.77 726.107 232.923 724.904 232.923 L 714.249 232.923 C 712.912 232.923 711.887 233.992 711.887 235.285 C 711.887 249.15 719.421 265.689 755.485 265.689 C 781.52 265.644 796.498 255.346 796.498 237.425 L 796.498 237.425 L 796.498 237.425 Z "
              fill-rule="evenodd" fill="rgb(110,102,88)"/>
        <path d=" M 172.075 594.243 C 172.075 525.253 228.086 469.243 297.075 469.243 C 366.064 469.243 422.075 525.253 422.075 594.243 C 422.075 663.232 366.064 719.243 297.075 719.243 C 228.086 719.243 172.075 663.232 172.075 594.243 Z  M 306.765 535.268 C 320.164 523.597 332.664 519.022 338.355 522.3 C 344.443 525.794 346.784 539.914 342.966 558.465 C 342.714 559.69 342.461 560.878 342.137 562.067 C 334.141 560.266 326.036 558.969 317.895 558.249 C 313.212 551.549 308.097 545.137 302.55 539.122 C 303.955 537.789 305.324 536.528 306.765 535.268 L 306.765 535.268 L 306.765 535.268 Z  M 265.088 612.785 C 266.926 615.918 268.799 619.052 270.78 622.114 C 265.161 621.502 259.577 620.601 254.066 619.412 C 255.651 614.225 257.632 608.858 259.937 603.383 C 261.594 606.553 263.287 609.687 265.088 612.785 L 265.088 612.785 L 265.088 612.785 Z  M 254.174 569.451 C 259.361 568.299 264.872 567.362 270.6 566.642 C 268.691 569.631 266.817 572.693 265.052 575.791 C 263.287 578.853 261.558 581.987 259.937 585.156 C 257.668 579.789 255.759 574.53 254.174 569.451 L 254.174 569.451 Z  M 329.098 612.712 C 330.935 609.543 332.664 606.337 334.357 603.095 C 336.662 608.318 338.679 613.613 340.444 619.052 C 334.861 620.313 329.206 621.285 323.514 621.934 C 325.46 618.908 327.297 615.81 329.098 612.712 L 329.098 612.712 Z  M 334.285 585.156 C 332.592 581.987 330.863 578.817 329.062 575.719 C 327.297 572.657 325.46 569.631 323.55 566.642 C 329.35 567.362 334.897 568.335 340.084 569.523 C 338.427 574.854 336.482 580.042 334.285 585.156 L 334.285 585.156 L 334.285 585.156 Z  M 297.147 544.633 C 300.929 548.739 304.495 553.062 307.809 557.528 C 300.677 557.204 293.509 557.204 286.377 557.528 C 289.907 552.882 293.545 548.559 297.147 544.633 L 297.147 544.633 Z  M 255.363 522.552 C 261.414 519.022 274.85 524.065 289.006 536.6 C 289.907 537.393 290.807 538.257 291.744 539.122 C 286.161 545.137 281.01 551.549 276.291 558.249 C 268.15 558.969 260.082 560.23 252.085 561.995 C 251.617 560.158 251.22 558.285 250.824 556.412 C 247.438 538.978 249.672 525.83 255.363 522.552 L 255.363 522.552 L 255.363 522.552 Z  M 246.538 617.503 C 245.025 617.071 243.548 616.603 242.071 616.098 C 234.399 613.685 225.682 609.867 219.378 604.86 C 215.74 602.338 213.29 598.448 212.606 594.09 C 212.606 587.498 223.989 579.069 240.414 573.342 C 242.467 572.621 244.557 571.973 246.646 571.36 C 249.095 579.177 252.049 586.849 255.471 594.27 C 252.013 601.798 249.023 609.579 246.538 617.503 L 246.538 617.503 L 246.538 617.503 Z  M 288.538 652.804 C 282.595 658.243 275.715 662.565 268.222 665.519 C 264.224 667.428 259.613 667.608 255.507 665.987 C 249.78 662.673 247.402 649.958 250.644 632.848 C 251.04 630.831 251.473 628.814 251.977 626.833 C 260.046 628.562 268.186 629.75 276.435 630.363 C 281.19 637.099 286.413 643.546 291.996 649.598 C 290.843 650.715 289.691 651.795 288.538 652.804 L 288.538 652.804 Z  M 297.363 644.051 C 293.689 640.088 290.015 635.694 286.449 630.975 C 289.907 631.119 293.473 631.191 297.075 631.191 C 300.785 631.191 304.423 631.119 308.025 630.939 C 304.711 635.514 301.145 639.872 297.363 644.051 L 297.363 644.051 L 297.363 644.051 Z  M 344.443 654.857 C 344.118 659.251 341.957 663.358 338.499 666.131 C 332.772 669.445 320.561 665.123 307.377 653.812 C 305.864 652.516 304.351 651.111 302.802 649.67 C 308.314 643.582 313.392 637.135 318.003 630.363 C 326.252 629.678 334.465 628.418 342.569 626.581 C 342.93 628.057 343.254 629.534 343.542 630.975 C 345.307 638.756 345.595 646.86 344.443 654.857 L 344.443 654.857 L 344.443 654.857 Z  M 350.998 616.134 C 349.99 616.459 348.981 616.783 347.937 617.071 C 345.415 609.218 342.317 601.546 338.751 594.09 C 342.209 586.741 345.127 579.177 347.576 571.433 C 349.449 571.973 351.25 572.549 352.979 573.125 C 369.765 578.889 381.544 587.462 381.544 594.018 C 381.544 601.078 368.973 610.191 350.998 616.134 L 350.998 616.134 Z  M 297.075 610.731 C 306.188 610.731 313.573 603.347 313.573 594.234 C 313.573 585.12 306.188 577.736 297.075 577.736 C 287.962 577.736 280.577 585.12 280.577 594.234 C 280.577 603.347 287.962 610.731 297.075 610.731 L 297.075 610.731 Z  M 264.044 594.27 C 266.421 589.299 269.015 584.436 271.752 579.645 C 274.49 574.854 277.444 570.208 280.541 565.633 C 285.945 565.237 291.456 565.021 297.075 565.021 C 302.694 565.021 308.242 565.237 313.609 565.633 C 316.67 570.172 319.588 574.818 322.362 579.573 C 325.135 584.328 327.729 589.191 330.178 594.126 C 327.765 599.097 325.171 603.995 322.398 608.822 C 319.66 613.613 316.742 618.26 313.681 622.87 C 308.314 623.267 302.73 623.447 297.075 623.447 C 291.42 623.447 285.945 623.267 280.649 622.942 C 277.516 618.368 274.562 613.685 271.788 608.894 C 269.015 604.103 266.457 599.241 264.044 594.27 L 264.044 594.27 Z  M 355.501 565.849 C 353.556 565.201 351.611 564.589 349.666 564.012 C 349.99 562.679 350.278 561.347 350.566 560.014 C 354.997 538.545 352.079 521.291 342.245 515.6 C 332.772 510.161 317.319 515.816 301.686 529.432 C 300.137 530.765 298.624 532.17 297.183 533.575 C 296.211 532.638 295.202 531.701 294.193 530.801 C 277.804 516.248 261.378 510.125 251.545 515.852 C 242.107 521.327 239.297 537.573 243.26 557.889 C 243.656 559.906 244.088 561.887 244.593 563.904 C 242.287 564.553 240.018 565.273 237.893 566.029 C 218.658 572.693 204.862 583.211 204.862 594.09 C 204.862 605.328 219.558 616.603 239.55 623.447 C 241.171 623.987 242.792 624.527 244.448 624.996 C 243.908 627.157 243.44 629.282 243.008 631.479 C 239.225 651.471 242.179 667.32 251.617 672.759 C 261.342 678.379 277.696 672.615 293.617 658.675 C 294.878 657.558 296.138 656.406 297.399 655.181 C 298.984 656.73 300.641 658.207 302.298 659.648 C 317.715 672.903 332.952 678.271 342.353 672.831 C 352.079 667.212 355.249 650.174 351.142 629.426 C 350.818 627.841 350.458 626.22 350.062 624.563 C 351.214 624.239 352.331 623.879 353.448 623.519 C 374.232 616.639 389.289 605.508 389.289 594.09 C 389.289 583.175 375.096 572.585 355.501 565.849 L 355.501 565.849 L 355.501 565.849 Z "
              fill-rule="evenodd" fill="rgb(110,102,88)"/>
        <path d=" M 950.978 290.757 C 950.978 241.085 991.306 200.757 1040.978 200.757 C 1090.65 200.757 1130.978 241.085 1130.978 290.757 C 1130.978 340.43 1090.65 380.757 1040.978 380.757 C 991.306 380.757 950.978 340.43 950.978 290.757 Z  M 1092.805 238.075 C 1099.991 259.546 1108.735 293.052 1093.151 313.744 C 1083.541 326.557 1067.092 328.635 1050.988 328.635 C 1043.37 328.635 1035.837 328.202 1029.171 328.202 C 1027.439 328.202 1025.794 328.202 1024.236 328.289 C 1024.236 328.289 1020.513 328.462 1016.79 329.068 C 1016.79 329.068 1018.176 328.462 1019.994 327.856 C 1034.712 322.748 1041.638 321.709 1050.642 317.12 C 1067.438 308.549 1084.147 289.762 1087.61 270.282 C 1081.204 288.983 1061.724 305.173 1044.062 311.666 C 1031.941 316.168 1010.037 320.497 1010.037 320.497 L 1010.037 320.497 L 1009.172 320.064 C 994.021 312.878 993.588 280.498 1020.686 270.109 C 1032.547 265.52 1043.976 268.031 1056.789 265.001 C 1070.468 261.797 1086.312 251.495 1092.805 238.075 L 1092.805 238.075 L 1092.805 238.075 Z  M 999.302 329.154 C 999.302 326.24 1001.668 323.873 1004.583 323.873 C 1007.498 323.873 1009.864 326.24 1009.864 329.154 C 1009.864 332.069 1007.498 334.436 1004.583 334.436 C 1001.668 334.436 999.302 332.069 999.302 329.154 L 999.302 329.154 Z  M 1104.488 281.657 L 1105.618 283.615 C 1107.956 287.511 1107.956 293.918 1105.618 297.9 L 1099.711 308.131 C 1098.667 310.364 1097.453 312.465 1096.07 314.435 L 1079.472 343.18 C 1077.221 347.162 1071.594 350.366 1067.092 350.366 L 1014.799 350.366 C 1010.297 350.366 1004.67 347.076 1002.419 343.18 L 976.272 297.9 C 974.021 294.004 974.021 287.511 976.272 283.615 L 1002.419 238.335 C 1004.67 234.353 1010.297 231.149 1014.799 231.149 L 1067.092 231.149 C 1071.594 231.149 1077.221 234.439 1079.472 238.335 L 1084.041 246.248 C 1086.631 243.44 1088.842 240.331 1090.467 236.95 L 1093.238 231.236 L 1093.238 231.236 L 1095.402 237.383 C 1101.153 254.472 1104.176 269.179 1104.488 281.657 L 1104.488 281.657 L 1104.488 281.657 Z "
              fill-rule="evenodd" fill="rgb(110,102,88)"/>
        <path d=" M 865.075 599.243 C 865.075 544.051 909.884 499.243 965.075 499.243 C 1020.267 499.243 1065.075 544.051 1065.075 599.243 C 1065.075 654.434 1020.267 699.243 965.075 699.243 C 909.884 699.243 865.075 654.434 865.075 599.243 Z  M 985.557 647.98 C 989.212 647.98 992.176 650.977 992.176 654.666 C 992.176 658.387 989.212 661.384 985.557 661.384 C 981.934 661.384 978.937 658.354 978.937 654.666 C 978.97 650.944 981.934 647.98 985.557 647.98 L 985.557 647.98 Z  M 944.358 549.677 C 940.703 549.677 937.739 546.68 937.739 542.992 C 937.772 539.271 940.703 536.274 944.358 536.274 C 947.981 536.274 950.978 539.304 950.978 542.992 C 950.978 546.68 948.014 549.677 944.358 549.677 L 944.358 549.677 L 944.358 549.677 Z  M 1036.141 580.963 C 1033.605 570.787 1028.797 563.114 1018.555 563.114 L 1005.349 563.114 L 1005.349 578.724 C 1005.349 590.843 995.074 601.052 983.35 601.052 L 948.179 601.052 C 938.562 601.052 930.593 609.285 930.593 618.934 L 930.593 652.459 C 930.593 662.01 938.892 667.608 948.179 670.341 C 959.31 673.602 970.013 674.194 983.35 670.341 C 992.209 667.773 1000.936 662.602 1000.936 652.459 L 1000.936 639.056 L 965.797 639.056 L 965.797 634.577 L 1018.555 634.577 C 1028.797 634.577 1032.584 627.431 1036.141 616.728 C 1039.829 605.695 1039.665 595.091 1036.141 580.963 L 1036.141 580.963 L 1036.141 580.963 Z  M 946.565 596.639 L 981.737 596.639 C 991.518 596.639 999.323 588.57 999.323 578.757 L 999.323 545.198 C 999.323 535.648 991.287 528.502 981.737 526.888 C 969.947 524.945 957.136 525.044 946.565 526.921 C 931.68 529.556 928.979 535.055 928.979 545.231 L 928.979 558.635 L 964.184 558.635 L 964.184 563.114 L 915.773 563.114 C 905.531 563.114 896.574 569.272 893.774 580.963 C 890.547 594.366 890.415 602.731 893.774 616.728 C 896.277 627.134 902.238 634.577 912.48 634.577 L 924.566 634.577 L 924.566 618.506 C 924.566 606.881 934.61 596.639 946.565 596.639 L 946.565 596.639 Z "
              fill-rule="evenodd" fill="rgb(110,102,88)"/>
        <path d=" M 619.656 513.757 C 619.656 480.643 646.541 453.757 679.656 453.757 C 712.771 453.757 739.656 480.643 739.656 513.757 C 739.656 546.872 712.771 573.757 679.656 573.757 C 646.541 573.757 619.656 546.872 619.656 513.757 Z  M 722.248 509.815 L 683.597 471.165 C 681.372 468.939 677.762 468.939 675.534 471.165 L 667.509 479.192 L 677.69 489.373 C 680.056 488.574 682.769 489.11 684.655 490.996 C 686.551 492.894 687.083 495.63 686.263 498.005 L 696.076 507.817 C 698.451 506.998 701.189 507.527 703.085 509.426 C 705.735 512.075 705.735 516.369 703.085 519.02 C 700.434 521.67 696.141 521.67 693.489 519.02 C 691.496 517.025 691.003 514.097 692.014 511.642 L 682.861 502.49 L 682.861 526.572 C 683.507 526.892 684.117 527.318 684.655 527.855 C 687.304 530.504 687.304 534.797 684.655 537.45 C 682.005 540.098 677.709 540.098 675.062 537.45 C 672.413 534.797 672.413 530.504 675.062 527.855 C 675.717 527.2 676.475 526.706 677.284 526.374 L 677.284 502.07 C 676.475 501.738 675.719 501.248 675.062 500.589 C 673.055 498.583 672.573 495.638 673.602 493.173 L 663.565 483.135 L 637.062 509.636 C 634.836 511.864 634.836 515.474 637.062 517.7 L 675.715 556.35 C 677.94 558.576 681.549 558.576 683.778 556.35 L 722.248 517.88 C 724.475 515.653 724.475 512.041 722.248 509.815 Z "
              fill-rule="evenodd" fill="rgb(110,102,88)"/>
        <path d=" M 74.228 218.757 C 74.228 163.566 119.037 118.757 174.228 118.757 C 229.42 118.757 274.228 163.566 274.228 218.757 C 274.228 273.949 229.42 318.757 174.228 318.757 C 119.037 318.757 74.228 273.949 74.228 218.757 Z  M 183.957 214.755 L 199.24 214.755 L 199.24 200.927 L 183.957 200.927 L 183.957 214.755 L 183.957 214.755 Z  M 165.763 214.755 L 181.046 214.755 L 181.046 200.927 L 165.763 200.927 L 165.763 214.755 L 165.763 214.755 Z  M 147.933 214.755 L 163.216 214.755 L 163.216 200.927 L 147.933 200.927 L 147.933 214.755 L 147.933 214.755 Z  M 130.103 214.755 L 145.022 214.755 L 145.022 200.927 L 130.103 200.927 L 130.103 214.755 L 130.103 214.755 Z  M 111.909 214.755 L 127.192 214.755 L 127.192 200.927 L 111.909 200.927 L 111.909 214.755 L 111.909 214.755 Z  M 130.103 198.016 L 145.022 198.016 L 145.022 184.189 L 130.103 184.189 L 130.103 198.016 L 130.103 198.016 Z  M 147.933 198.016 L 163.216 198.016 L 163.216 184.189 L 147.933 184.189 L 147.933 198.016 L 147.933 198.016 Z  M 165.763 198.016 L 181.046 198.016 L 181.046 184.189 L 165.763 184.189 L 165.763 198.016 L 165.763 198.016 Z  M 165.763 181.278 L 181.046 181.278 L 181.046 167.451 L 165.763 167.451 L 165.763 181.278 L 165.763 181.278 Z  M 247.999 208.569 C 247.999 208.569 241.45 202.383 227.986 204.566 C 226.531 194.014 215.25 187.828 215.25 187.828 C 215.25 187.828 204.698 200.564 212.339 214.755 C 210.156 215.846 206.517 217.302 201.059 217.302 L 100.993 217.302 C 99.174 224.216 99.174 270.064 149.389 270.064 C 185.412 270.064 212.339 253.326 225.075 222.76 C 243.997 224.216 247.999 208.569 247.999 208.569 L 247.999 208.569 Z "
              fill-rule="evenodd" fill="rgb(110,102,88)"/>
        <path d=" M 371.075 388.757 C 371.075 352.883 400.201 323.757 436.075 323.757 C 471.95 323.757 501.075 352.883 501.075 388.757 C 501.075 424.632 471.95 453.757 436.075 453.757 C 400.201 453.757 371.075 424.632 371.075 388.757 Z  M 470.144 388.756 L 470.581 409.818 L 456.698 401.747 L 456.698 431.791 L 438.315 442.54 L 438.315 334.978 L 484.026 361.415 L 484.026 385.173 L 456.698 369.048 L 456.698 381.146 L 470.144 388.756 L 470.144 388.756 Z  M 388.124 361.411 L 433.835 334.975 L 433.835 442.537 L 415.452 431.787 L 415.452 369.042 L 388.124 385.166 L 388.124 361.411 L 388.124 361.411 Z "
              fill-rule="evenodd" fill="rgb(110,102,88)"/>
        <circle vector-effect="non-scaling-stroke" cx="371.07503275239793" cy="218.75744579201472" r="38"
                fill="rgb(110,102,88)"/>
        <circle vector-effect="non-scaling-stroke" cx="522.0260623656056" cy="648.7574457920148" r="38"
                fill="rgb(110,102,88)"/>
        <circle vector-effect="non-scaling-stroke" cx="990.0750327523979" cy="105.75744579201478" r="25"
                fill="rgb(110,102,88)"/>
        <circle vector-effect="non-scaling-stroke" cx="856.4799626641894" cy="400.7574457920148" r="20"
                fill="rgb(110,102,88)"/>
        <circle vector-effect="non-scaling-stroke" cx="94.0221242695307" cy="462.7574457920168" r="25"
                fill="rgb(110,102,88)"/>
    </g>
</svg>
